<mxfile host="app.diagrams.net" agent="Mozilla/5.0 (Windows NT 10.0; Win64; x64) AppleWebKit/537.36 (KHTML, like Gecko) Chrome/132.0.0.0 Safari/537.36" version="26.0.11">
  <diagram name="Page-1" id="66oRf8c9beQP8yADGR7k">
    <mxGraphModel dx="1050" dy="522" grid="1" gridSize="10" guides="1" tooltips="1" connect="1" arrows="1" fold="1" page="1" pageScale="1" pageWidth="850" pageHeight="1100" math="0" shadow="0">
      <root>
        <mxCell id="0" />
        <mxCell id="1" parent="0" />
        <mxCell id="K8hAKbmLXdkOaxauKFW8-1" value="Navigate to &#39;Manage Paid Post&#39;" style="whiteSpace=wrap;strokeWidth=2;" vertex="1" parent="1">
          <mxGeometry x="330" y="20" width="260" height="78" as="geometry" />
        </mxCell>
        <mxCell id="K8hAKbmLXdkOaxauKFW8-2" value="Display Paid Post List" style="whiteSpace=wrap;strokeWidth=2;" vertex="1" parent="1">
          <mxGeometry x="355" y="148" width="210" height="54" as="geometry" />
        </mxCell>
        <mxCell id="K8hAKbmLXdkOaxauKFW8-3" value="Hover Over Paid Post - Show Actions" style="whiteSpace=wrap;strokeWidth=2;" vertex="1" parent="1">
          <mxGeometry x="330" y="252" width="260" height="78" as="geometry" />
        </mxCell>
        <mxCell id="K8hAKbmLXdkOaxauKFW8-4" value="Click &#39;View Member&#39;" style="whiteSpace=wrap;strokeWidth=2;" vertex="1" parent="1">
          <mxGeometry x="49" y="600" width="201" height="54" as="geometry" />
        </mxCell>
        <mxCell id="K8hAKbmLXdkOaxauKFW8-5" value="Display Members with Paid Post Access" style="whiteSpace=wrap;strokeWidth=2;" vertex="1" parent="1">
          <mxGeometry x="20" y="728" width="260" height="78" as="geometry" />
        </mxCell>
        <mxCell id="K8hAKbmLXdkOaxauKFW8-6" value="End" style="whiteSpace=wrap;strokeWidth=2;" vertex="1" parent="1">
          <mxGeometry x="417" y="868" width="86" height="54" as="geometry" />
        </mxCell>
        <mxCell id="K8hAKbmLXdkOaxauKFW8-7" value="Click &#39;Edit Paid Post&#39;" style="whiteSpace=wrap;strokeWidth=2;" vertex="1" parent="1">
          <mxGeometry x="359" y="380" width="202" height="54" as="geometry" />
        </mxCell>
        <mxCell id="K8hAKbmLXdkOaxauKFW8-8" value="Open &#39;Edit Paid Post&#39; Page" style="whiteSpace=wrap;strokeWidth=2;" vertex="1" parent="1">
          <mxGeometry x="339" y="484" width="243" height="54" as="geometry" />
        </mxCell>
        <mxCell id="K8hAKbmLXdkOaxauKFW8-9" value="Allow Changing Post Type &amp; Alternative Content" style="whiteSpace=wrap;strokeWidth=2;" vertex="1" parent="1">
          <mxGeometry x="330" y="588" width="260" height="78" as="geometry" />
        </mxCell>
        <mxCell id="K8hAKbmLXdkOaxauKFW8-10" value="Click &#39;Save&#39; - Changes Apply Only to New Members" style="whiteSpace=wrap;strokeWidth=2;" vertex="1" parent="1">
          <mxGeometry x="330" y="716" width="260" height="102" as="geometry" />
        </mxCell>
        <mxCell id="K8hAKbmLXdkOaxauKFW8-11" value="Click &#39;Delete Paid Post&#39;" style="whiteSpace=wrap;strokeWidth=2;" vertex="1" parent="1">
          <mxGeometry x="659" y="600" width="221" height="54" as="geometry" />
        </mxCell>
        <mxCell id="K8hAKbmLXdkOaxauKFW8-12" value="Remove Restriction from Paid Post" style="whiteSpace=wrap;strokeWidth=2;" vertex="1" parent="1">
          <mxGeometry x="640" y="728" width="260" height="78" as="geometry" />
        </mxCell>
        <mxCell id="K8hAKbmLXdkOaxauKFW8-13" value="" style="curved=1;startArrow=none;endArrow=block;exitX=0.5;exitY=1;entryX=0.5;entryY=0;rounded=0;" edge="1" parent="1" source="K8hAKbmLXdkOaxauKFW8-1" target="K8hAKbmLXdkOaxauKFW8-2">
          <mxGeometry relative="1" as="geometry">
            <Array as="points" />
          </mxGeometry>
        </mxCell>
        <mxCell id="K8hAKbmLXdkOaxauKFW8-14" value="" style="curved=1;startArrow=none;endArrow=block;exitX=0.5;exitY=1;entryX=0.5;entryY=0;rounded=0;" edge="1" parent="1" source="K8hAKbmLXdkOaxauKFW8-2" target="K8hAKbmLXdkOaxauKFW8-3">
          <mxGeometry relative="1" as="geometry">
            <Array as="points" />
          </mxGeometry>
        </mxCell>
        <mxCell id="K8hAKbmLXdkOaxauKFW8-15" value="" style="curved=1;startArrow=none;endArrow=block;exitX=0;exitY=0.84;entryX=0.5;entryY=0;rounded=0;" edge="1" parent="1" source="K8hAKbmLXdkOaxauKFW8-3" target="K8hAKbmLXdkOaxauKFW8-4">
          <mxGeometry relative="1" as="geometry">
            <Array as="points">
              <mxPoint x="150" y="355" />
            </Array>
          </mxGeometry>
        </mxCell>
        <mxCell id="K8hAKbmLXdkOaxauKFW8-16" value="" style="curved=1;startArrow=none;endArrow=block;exitX=0.5;exitY=1;entryX=0.5;entryY=0;rounded=0;" edge="1" parent="1" source="K8hAKbmLXdkOaxauKFW8-4" target="K8hAKbmLXdkOaxauKFW8-5">
          <mxGeometry relative="1" as="geometry">
            <Array as="points" />
          </mxGeometry>
        </mxCell>
        <mxCell id="K8hAKbmLXdkOaxauKFW8-17" value="" style="curved=1;startArrow=none;endArrow=block;exitX=0.5;exitY=1;entryX=0;entryY=0.37;rounded=0;" edge="1" parent="1" source="K8hAKbmLXdkOaxauKFW8-5" target="K8hAKbmLXdkOaxauKFW8-6">
          <mxGeometry relative="1" as="geometry">
            <Array as="points">
              <mxPoint x="150" y="843" />
            </Array>
          </mxGeometry>
        </mxCell>
        <mxCell id="K8hAKbmLXdkOaxauKFW8-18" value="" style="curved=1;startArrow=none;endArrow=block;exitX=0.5;exitY=1;entryX=0.5;entryY=0;rounded=0;" edge="1" parent="1" source="K8hAKbmLXdkOaxauKFW8-3" target="K8hAKbmLXdkOaxauKFW8-7">
          <mxGeometry relative="1" as="geometry">
            <Array as="points" />
          </mxGeometry>
        </mxCell>
        <mxCell id="K8hAKbmLXdkOaxauKFW8-19" value="" style="curved=1;startArrow=none;endArrow=block;exitX=0.5;exitY=1;entryX=0.5;entryY=0;rounded=0;" edge="1" parent="1" source="K8hAKbmLXdkOaxauKFW8-7" target="K8hAKbmLXdkOaxauKFW8-8">
          <mxGeometry relative="1" as="geometry">
            <Array as="points" />
          </mxGeometry>
        </mxCell>
        <mxCell id="K8hAKbmLXdkOaxauKFW8-20" value="" style="curved=1;startArrow=none;endArrow=block;exitX=0.5;exitY=1;entryX=0.5;entryY=0;rounded=0;" edge="1" parent="1" source="K8hAKbmLXdkOaxauKFW8-8" target="K8hAKbmLXdkOaxauKFW8-9">
          <mxGeometry relative="1" as="geometry">
            <Array as="points" />
          </mxGeometry>
        </mxCell>
        <mxCell id="K8hAKbmLXdkOaxauKFW8-21" value="" style="curved=1;startArrow=none;endArrow=block;exitX=0.5;exitY=1;entryX=0.5;entryY=0;rounded=0;" edge="1" parent="1" source="K8hAKbmLXdkOaxauKFW8-9" target="K8hAKbmLXdkOaxauKFW8-10">
          <mxGeometry relative="1" as="geometry">
            <Array as="points" />
          </mxGeometry>
        </mxCell>
        <mxCell id="K8hAKbmLXdkOaxauKFW8-22" value="" style="curved=1;startArrow=none;endArrow=block;exitX=0.5;exitY=1;entryX=0.5;entryY=0;rounded=0;" edge="1" parent="1" source="K8hAKbmLXdkOaxauKFW8-10" target="K8hAKbmLXdkOaxauKFW8-6">
          <mxGeometry relative="1" as="geometry">
            <Array as="points" />
          </mxGeometry>
        </mxCell>
        <mxCell id="K8hAKbmLXdkOaxauKFW8-23" value="" style="curved=1;startArrow=none;endArrow=block;exitX=1;exitY=0.84;entryX=0.5;entryY=0;rounded=0;" edge="1" parent="1" source="K8hAKbmLXdkOaxauKFW8-3" target="K8hAKbmLXdkOaxauKFW8-11">
          <mxGeometry relative="1" as="geometry">
            <Array as="points">
              <mxPoint x="770" y="355" />
            </Array>
          </mxGeometry>
        </mxCell>
        <mxCell id="K8hAKbmLXdkOaxauKFW8-24" value="" style="curved=1;startArrow=none;endArrow=block;exitX=0.5;exitY=1;entryX=0.5;entryY=0;rounded=0;" edge="1" parent="1" source="K8hAKbmLXdkOaxauKFW8-11" target="K8hAKbmLXdkOaxauKFW8-12">
          <mxGeometry relative="1" as="geometry">
            <Array as="points" />
          </mxGeometry>
        </mxCell>
        <mxCell id="K8hAKbmLXdkOaxauKFW8-25" value="" style="curved=1;startArrow=none;endArrow=block;exitX=0.5;exitY=1;entryX=1;entryY=0.37;rounded=0;" edge="1" parent="1" source="K8hAKbmLXdkOaxauKFW8-12" target="K8hAKbmLXdkOaxauKFW8-6">
          <mxGeometry relative="1" as="geometry">
            <Array as="points">
              <mxPoint x="770" y="843" />
            </Array>
          </mxGeometry>
        </mxCell>
      </root>
    </mxGraphModel>
  </diagram>
</mxfile>
